<svg xmlns="http://www.w3.org/2000/svg" xmlns:xlink="http://www.w3.org/1999/xlink" width="642.5" height="634.9" viewBox="0 0 642.5 634.9">
  <defs>
    <clipPath id="clip-path">
      <rect width="642.5" height="634.9" fill="none"/>
    </clipPath>
  </defs>
  <g id="codewars" clip-path="url(#clip-path)">
    <g id="codewars-2" data-name="codewars" transform="translate(-10 -10)">
      <path id="Path_16" data-name="Path 16" d="M321.7,550.8a20.939,20.939,0,0,1,29.9,6.9,24.17,24.17,0,0,1,33.5-.9,26.527,26.527,0,0,1,36-17.6v.6a29.452,29.452,0,0,1,28.4-28.7,35.5,35.5,0,0,1-3.3-19.7,36.063,36.063,0,0,1,19.4-27.7l.1.1a29.735,29.735,0,0,1-2.1-38.8,27.3,27.3,0,0,1-12.1-33.5,25.123,25.123,0,0,1-21.7-28.8,19.41,19.41,0,0,1-22.9-14.9,17.691,17.691,0,0,1-27.1-10.7,11.439,11.439,0,0,1-10.6.2v-.2a36.4,36.4,0,0,1-9.7,16,11.163,11.163,0,0,1,5,15.6,17.8,17.8,0,0,1,8.8,29.8,19.686,19.686,0,0,1,1,35.6A24.667,24.667,0,0,1,363,476.3v.1a27.271,27.271,0,0,1-26.5,39.7,29.7,29.7,0,0,1-17.7,29,17.2,17.2,0,0,1,3,5.6.692.692,0,0,1-.1,0Z" fill="#fff"/>
      <path id="Path_17" data-name="Path 17" d="M623.8,10H38.7A28.7,28.7,0,0,0,10,38.7V616.2a28.7,28.7,0,0,0,28.7,28.7H623.8a28.7,28.7,0,0,0,28.7-28.7V38.7A28.7,28.7,0,0,0,623.8,10ZM597.3,398.8a26.941,26.941,0,0,1-16.2,11.6,24.2,24.2,0,0,1-21.5,39.7q-.086-.552-.2-1.1a21,21,0,0,1-28.8,23.4,17.1,17.1,0,0,1-2.6,7.5,16.728,16.728,0,0,1-11.5,7.7,35.885,35.885,0,0,1-39,43.5h1a29.474,29.474,0,0,1-41.3,35.7,26.6,26.6,0,0,1-45.4,15.6,24.2,24.2,0,0,1-45.1,2,21,21,0,0,1-34.1-13.2,17.041,17.041,0,0,1-24.4-13.8l.1-.2a35.736,35.736,0,0,1-62.9-4.9,29.551,29.551,0,0,1-51.1-19.2A26.6,26.6,0,0,1,139,500.7a24.2,24.2,0,0,1-23.4-38.6,21,21,0,0,1-4.7-36.3,17.071,17.071,0,0,1-4.9-22.3l.5.1a35.712,35.712,0,0,1-20.3-55.8,29.363,29.363,0,0,1-9.1-53.7,26.6,26.6,0,0,1,10-47,24.2,24.2,0,0,1,21.6-39.6l.1,1.1a21,21,0,0,1,28.8-23.5,17.1,17.1,0,0,1,2.6-7.5,17.363,17.363,0,0,1,11.6-7.7,35.583,35.583,0,0,1,38-43.5A29.519,29.519,0,0,1,231,90.7a26.6,26.6,0,0,1,45.4-15.5,24.2,24.2,0,0,1,45.1-2.1,21,21,0,0,1,34.1,13.2,17.319,17.319,0,0,1,24.5,13.8l-.2.3a35.635,35.635,0,0,1,62.9,4.9,29.414,29.414,0,0,1,51.1,19.1,26.6,26.6,0,0,1,35.4,32.5,24.2,24.2,0,0,1,23.4,38.5,21,21,0,0,1,4.7,36.3,17.316,17.316,0,0,1,4.8,22.4A35.594,35.594,0,0,1,582,309.7a29.556,29.556,0,0,1,9.2,53.8,26.6,26.6,0,0,1,6.1,35.3Z" fill="#fff"/>
      <path id="Path_18" data-name="Path 18" d="M316.6,99.8a24.184,24.184,0,0,1-33.4,1,26.92,26.92,0,0,1-36.1,17.6,29.4,29.4,0,0,1-28.4,28,35.7,35.7,0,0,1-16.1,47.4,29.733,29.733,0,0,1,2,38.7A26.789,26.789,0,0,1,216.7,266a25.12,25.12,0,0,1,21.7,28.8,20.047,20.047,0,0,1,23,15,17.694,17.694,0,0,1,27.1,10.7,11.2,11.2,0,0,1,10.2-.4,36.2,36.2,0,0,1,8.1-16.9,11.231,11.231,0,0,1-3.1-14.3A17.8,17.8,0,0,1,295,259a19.741,19.741,0,0,1,.7-36.4q-.815.315-1.6.7a24.5,24.5,0,0,1,11.3-42.2V181a27.325,27.325,0,0,1,26.5-39.7,29.7,29.7,0,0,1,16-28.2q.79-.373,1.6-.7a17.2,17.2,0,0,1-2.9-5.6,21.036,21.036,0,0,1-29.9-7.1Zm214.7,217a35.7,35.7,0,0,1-13.7-31,28.974,28.974,0,0,1-22.4-3.9,29.6,29.6,0,0,1-11.8-14.3,27.219,27.219,0,0,1-35-7,24.446,24.446,0,0,1-32.8,6,24.8,24.8,0,0,1-3-2.2A19.291,19.291,0,0,1,388,276.3,17.844,17.844,0,0,1,364.8,294a11.2,11.2,0,0,1-1.7,5.7,11.406,11.406,0,0,1-2,2.3,36.3,36.3,0,0,1,8.4,15.1,11.069,11.069,0,0,1,14.2,4.1,17.8,17.8,0,0,1,30.4,6.5,19.522,19.522,0,0,1,31.6,18.1l.2-1.9A24.537,24.537,0,0,1,477.6,374a27.284,27.284,0,0,1,22.1,42.3A29.278,29.278,0,0,1,515,453.7l.1-.2,2.7.5a21.056,21.056,0,0,1,21.5-22,23.8,23.8,0,0,1,16.5-29,26.4,26.4,0,0,1,3.6-40,29.4,29.4,0,0,1-9.4-38.9,35.5,35.5,0,0,1-18.6-7.3Z" fill="#fff"/>
      <path id="Path_19" data-name="Path 19" d="M532.7,236.4a17.2,17.2,0,0,1,2.2-2.9,21.013,21.013,0,0,1-8.1-29.6A24.205,24.205,0,0,1,510,175a26.552,26.552,0,0,1-32.7-23.3,29.4,29.4,0,0,1-38.2-11.5,35.669,35.669,0,0,1-49.3,8.5v-.3a29.88,29.88,0,0,1-33.1,20.7,27.391,27.391,0,0,1-23.6,26.6,25.032,25.032,0,0,1-14.9,32.8,19.707,19.707,0,0,1-2.2,27.3,17.714,17.714,0,0,1,3.5,28.9,11.2,11.2,0,0,1,4.1,4.4,9.868,9.868,0,0,1,1,2.7,36.3,36.3,0,0,1,18-.4,11.117,11.117,0,0,1,10.6-9,17.8,17.8,0,0,1,21.3-22.7,19.728,19.728,0,0,1,30.2-18.8,24.5,24.5,0,0,1,42.2-11.6,27.305,27.305,0,0,1,47.7,2.9,29.75,29.75,0,0,1,38.1,4.2Zm-188,132a11.2,11.2,0,0,1-1.3-6.4,36.4,36.4,0,0,1-9,1.1,34.354,34.354,0,0,1-8.6-1A11.235,11.235,0,0,1,315,375.2a17.8,17.8,0,0,1-21.2,22.6,19.768,19.768,0,0,1-30.3,18.8,24.615,24.615,0,0,1-42.2,11.6v.1a27.411,27.411,0,0,1-47.7-2.9,29.5,29.5,0,0,1-32.5.4,29.8,29.8,0,0,1-5.6-4.6,17.4,17.4,0,0,1-2.2,2.8,20.811,20.811,0,0,1,8.1,29.6,24.205,24.205,0,0,1,16.8,28.9,26.428,26.428,0,0,1,32.7,23.3,29.4,29.4,0,0,1,38.3,11.5,35.669,35.669,0,0,1,49.3-8.5,29.645,29.645,0,0,1,33-20.3,27.336,27.336,0,0,1,23.7-26.7,24.107,24.107,0,0,1,14.9-32.7,19.553,19.553,0,0,1,2.1-27.3,17.7,17.7,0,0,1-7.5-7.6,17.925,17.925,0,0,1,4-21.4,11.2,11.2,0,0,1-4-4.4Z" fill="#fff"/>
      <path id="Path_20" data-name="Path 20" d="M300.4,339.5a11.332,11.332,0,0,1-15.9-3.1,17.8,17.8,0,0,1-30.3-6.5,19.842,19.842,0,0,1-31.8-16.2,24.591,24.591,0,0,1-31.7-30.2h-.1a27.206,27.206,0,0,1-22.1-42.2A29.947,29.947,0,0,1,153.2,204a17.4,17.4,0,0,1-2.7-.5,21.056,21.056,0,0,1-21.5,22,24.269,24.269,0,0,1-3,19,24,24,0,0,1-13.4,10.1,26.633,26.633,0,0,1-3.6,40,29.4,29.4,0,0,1,9.4,38.8,35.83,35.83,0,0,1,32.2,38.3,29.266,29.266,0,0,1,22.5,4,29.6,29.6,0,0,1,11.7,14.2,27.586,27.586,0,0,1,35,7,24.276,24.276,0,0,1,35.8-3.7,19.89,19.89,0,0,1,24.7-12,17.586,17.586,0,0,1,23.1-17.5,11.2,11.2,0,0,1,6.6-10,36.4,36.4,0,0,1-9.6-14Z" fill="#fff"/>
    </g>
  </g>
</svg>
