<svg xmlns="http://www.w3.org/2000/svg" width="65.012" height="65" viewBox="0 0 65.012 65">
  <g id="desing-icon" transform="translate(0 -0.047)">
    <path id="Path_7" data-name="Path 7" d="M46.844,5.154A22.874,22.874,0,0,0,15.419,38.182a14.477,14.477,0,0,1,3.754,9.6v3.809a5.723,5.723,0,0,0,3.809,5.386v2.359A5.72,5.72,0,0,0,28.7,65.047h7.619a5.72,5.72,0,0,0,5.714-5.714V56.974a5.723,5.723,0,0,0,3.809-5.386V47.778A14.88,14.88,0,0,1,49.7,38.056a22.914,22.914,0,0,0-2.86-32.9ZM38.22,59.333a1.907,1.907,0,0,1-1.9,1.9H28.7a1.907,1.907,0,0,1-1.9-1.9V57.3H38.22Zm3.809-7.746a1.907,1.907,0,0,1-1.9,1.9H24.887a1.907,1.907,0,0,1-1.9-1.9v-1.9H42.029ZM32.506,32.373a12.157,12.157,0,0,0,3.809-.614V45.874H28.7V31.759a12.156,12.156,0,0,0,3.809.614Zm-3.184-4.442,3.184-6.368L35.69,27.93a8.363,8.363,0,0,1-6.368,0Zm17.517,7.614a19.026,19.026,0,0,0-4.7,10.329H40.125V28.737a1.933,1.933,0,0,0-.183-.815c-.007-.014-.011-.029-.018-.042L34.209,16.452a1.9,1.9,0,0,0-3.407,0L25.088,27.88a1.967,1.967,0,0,0-.2.856V45.874H22.879A18.445,18.445,0,0,0,18.265,35.65a19.046,19.046,0,1,1,28.572-.1ZM5.714,23.018H1.9a1.9,1.9,0,0,0,0,3.809H5.714a1.9,1.9,0,0,0,0-3.809ZM6.5,13.494,3.809,10.8a1.9,1.9,0,0,0-2.694,2.694l2.694,2.694A1.9,1.9,0,1,0,6.5,13.494Zm0,20.162a1.9,1.9,0,0,0-2.694,0L1.116,36.35a1.9,1.9,0,0,0,2.694,2.694L6.5,36.35a1.9,1.9,0,0,0,0-2.694Zm56.6-10.639H59.3a1.9,1.9,0,1,0,0,3.809h3.809a1.9,1.9,0,0,0,0-3.809ZM63.9,10.8a1.9,1.9,0,0,0-2.694,0l-2.694,2.694A1.9,1.9,0,0,0,61.2,16.188L63.9,13.494A1.9,1.9,0,0,0,63.9,10.8Zm0,25.549L61.2,33.657a1.9,1.9,0,1,0-2.694,2.694L61.2,39.044A1.9,1.9,0,1,0,63.9,36.35Z" transform="translate(0 0)" fill="#5c98ff"/>
  </g>
</svg>
