<svg xmlns="http://www.w3.org/2000/svg" width="51" height="65" viewBox="0 0 51 65">
  <g id="front-img" transform="translate(-289.7 -2256)">
    <g id="svgexport-18_1_" data-name="svgexport-18 (1)" transform="translate(289.7 2256)">
      <path id="Path_3" data-name="Path 3" d="M82.994,91.311a1.048,1.048,0,0,0-.607-.524,2.043,2.043,0,0,0-.911-.225H80.111a3.124,3.124,0,0,1-1.366-.374,2.45,2.45,0,0,1-.835-1.123,7.1,7.1,0,0,1-.531-2.1,37.339,37.339,0,0,1-.152-4.117V76.713A24.721,24.721,0,0,0,76.848,72a11.129,11.129,0,0,0-1.29-3.444,8.718,8.718,0,0,0-5.919-4.192,10.164,10.164,0,0,0,3.566-1.572,9.7,9.7,0,0,0,3.642-6.064,19.8,19.8,0,0,0,.379-4.716V47.443a37.339,37.339,0,0,1,.152-4.117,6.564,6.564,0,0,1,.531-2.1,2.809,2.809,0,0,1,.986-1.123,3.492,3.492,0,0,1,1.518-.374H81.78a1.806,1.806,0,0,0,.607-.15.931.931,0,0,0,.455-.6,5.816,5.816,0,0,0,.379-1.048,11.023,11.023,0,0,0,.152-1.572,11.023,11.023,0,0,0-.152-1.572,2.1,2.1,0,0,0-.3-.973c-.076-.225-.3-.374-.455-.524a.868.868,0,0,0-.607-.225,11.924,11.924,0,0,0-1.593-.3,13.614,13.614,0,0,0-1.745-.075,10.469,10.469,0,0,0-4.78.9,7.205,7.205,0,0,0-3.111,2.695,13,13,0,0,0-1.669,4.417,33.547,33.547,0,0,0-.455,6.737V52.16c0,2.77-.455,4.866-1.366,6.213a5.361,5.361,0,0,1-3.946,2.47,5.272,5.272,0,0,0-.607.225,1.627,1.627,0,0,0-.379.6,5.9,5.9,0,0,0-.228,1.123,11.967,11.967,0,0,0-.076,1.647,12.52,12.52,0,0,0,.076,1.647,2.747,2.747,0,0,0,.3,1.048,1.166,1.166,0,0,0,.455.6,1.533,1.533,0,0,0,.607.3,5.309,5.309,0,0,1,2.352.9,4.958,4.958,0,0,1,1.593,1.722,7.112,7.112,0,0,1,.911,2.4,19.947,19.947,0,0,1,.3,3.668V83a51.361,51.361,0,0,0,.455,6.812,10.719,10.719,0,0,0,1.593,4.342,7.278,7.278,0,0,0,3.035,2.62,10.789,10.789,0,0,0,4.856.9,13.034,13.034,0,0,0,1.745-.075,11.921,11.921,0,0,0,1.593-.3,3.725,3.725,0,0,0,.531-.225,1.53,1.53,0,0,0,.455-.524,3.67,3.67,0,0,0,.3-.973,10.908,10.908,0,0,0,.076-1.572,12.519,12.519,0,0,0-.076-1.647,2.372,2.372,0,0,0-.076-1.048Z" transform="translate(-61.9 -32.685)" fill="#5c98ff"/>
    </g>
    <g id="svgexport-18_1_2" data-name="svgexport-18 (1)" transform="translate(319.226 2256)">
      <path id="Path_3-2" data-name="Path 3" d="M62.279,91.311a1.048,1.048,0,0,1,.607-.524,2.042,2.042,0,0,1,.911-.225h1.366a3.124,3.124,0,0,0,1.366-.374,2.45,2.45,0,0,0,.835-1.123,7.1,7.1,0,0,0,.531-2.1,37.341,37.341,0,0,0,.152-4.117V76.713A24.72,24.72,0,0,1,68.426,72a11.129,11.129,0,0,1,1.29-3.444,8.718,8.718,0,0,1,5.919-4.192,10.164,10.164,0,0,1-3.566-1.572,9.7,9.7,0,0,1-3.642-6.064,19.8,19.8,0,0,1-.379-4.716V47.443a37.341,37.341,0,0,0-.152-4.117,6.564,6.564,0,0,0-.531-2.1,2.809,2.809,0,0,0-.986-1.123,3.492,3.492,0,0,0-1.518-.374H63.493a1.806,1.806,0,0,1-.607-.15.931.931,0,0,1-.455-.6,5.816,5.816,0,0,1-.379-1.048,11.023,11.023,0,0,1-.152-1.572,11.022,11.022,0,0,1,.152-1.572,2.1,2.1,0,0,1,.3-.973c.076-.225.3-.374.455-.524a.868.868,0,0,1,.607-.225,11.924,11.924,0,0,1,1.593-.3,13.614,13.614,0,0,1,1.745-.075,10.469,10.469,0,0,1,4.78.9,7.205,7.205,0,0,1,3.111,2.695,13,13,0,0,1,1.669,4.417,33.547,33.547,0,0,1,.455,6.737V52.16c0,2.77.455,4.866,1.366,6.213a5.361,5.361,0,0,0,3.946,2.47,5.271,5.271,0,0,1,.607.225,1.627,1.627,0,0,1,.379.6A5.9,5.9,0,0,1,83.3,62.79a11.968,11.968,0,0,1,.076,1.647,12.521,12.521,0,0,1-.076,1.647,2.747,2.747,0,0,1-.3,1.048,1.166,1.166,0,0,1-.455.6,1.533,1.533,0,0,1-.607.3,5.309,5.309,0,0,0-2.352.9,4.958,4.958,0,0,0-1.593,1.722,7.112,7.112,0,0,0-.911,2.4,19.947,19.947,0,0,0-.3,3.668V83a51.362,51.362,0,0,1-.455,6.812,10.719,10.719,0,0,1-1.593,4.342,7.278,7.278,0,0,1-3.035,2.62,10.789,10.789,0,0,1-4.856.9,13.034,13.034,0,0,1-1.745-.075,11.922,11.922,0,0,1-1.593-.3,3.726,3.726,0,0,1-.531-.225,1.53,1.53,0,0,1-.455-.524,3.67,3.67,0,0,1-.3-.973,10.909,10.909,0,0,1-.076-1.572,12.52,12.52,0,0,1,.076-1.647,2.372,2.372,0,0,1,.076-1.048Z" transform="translate(-61.9 -32.685)" fill="#5c98ff"/>
    </g>
  </g>
</svg>
