<svg xmlns="http://www.w3.org/2000/svg" width="372.905" height="363.706" viewBox="0 0 372.905 363.706">
  <path id="github-icon" d="M188.454,2a186.461,186.461,0,0,0-58.966,363.349c9.323,1.631,12.819-3.962,12.819-8.856,0-4.428-.233-19.111-.233-34.727-46.846,8.623-58.966-11.42-62.695-21.908-2.1-5.361-11.187-21.908-19.111-26.336-6.526-3.5-15.848-12.119-.233-12.352,14.683-.233,25.171,13.518,28.667,19.111,16.781,28.2,43.583,20.277,54.3,15.382,1.631-12.119,6.526-20.277,11.887-24.938-41.486-4.661-84.836-20.743-84.836-92.061,0-20.277,7.225-37.057,19.111-50.109-1.865-4.661-8.39-23.773,1.865-49.41,0,0,15.615-4.894,51.274,19.111a175.789,175.789,0,0,1,93.227,0c35.659-24.239,51.274-19.111,51.274-19.111,10.255,25.637,3.729,44.749,1.865,49.41,11.886,13.052,19.111,29.6,19.111,50.109,0,71.551-43.583,87.4-85.069,92.061,6.759,5.827,12.586,17.014,12.586,34.494,0,24.938-.233,44.982-.233,51.274,0,4.894,3.5,10.721,12.819,8.856A186.551,186.551,0,0,0,188.454,2Z" transform="translate(-2.001 -2)" fill="#fff"/>
</svg>
